<svg width="60" height="60" viewBox="0 0 60 60" fill="none" xmlns="http://www.w3.org/2000/svg">
<path d="M15 28.3333V25H45V28.3333H15ZM15 15V11.6667H45V15H15ZM4.28571 38.3333H36.4286C38.1714 38.3333 39.7714 38.6278 41.2286 39.2167C42.6829 39.8033 43.9343 40.6289 44.9829 41.6933L55.7143 52.5267V5.38667C55.7143 4.78667 55.4671 4.29444 54.9728 3.91C54.4786 3.52555 53.8471 3.33333 53.0786 3.33333H6.92143C6.15286 3.33333 5.52143 3.52555 5.02714 3.91C4.53286 4.29444 4.28571 4.78667 4.28571 5.38667V38.3333ZM6.92571 56.6667H54.3643L41.6143 43.7233C40.9657 43.0656 40.2 42.5578 39.3171 42.2C38.4371 41.8444 37.4743 41.6667 36.4286 41.6667H4.28571V54.6167C4.28571 55.2144 4.53286 55.7055 5.02714 56.09C5.52143 56.4744 6.15429 56.6667 6.92571 56.6667ZM53.0786 60H6.92143C4.95 60 3.30428 59.4867 1.98428 58.46C0.664285 57.4333 0.00285714 56.1522 0 54.6167V5.38333C0 3.85 0.661428 2.57 1.98428 1.54333C3.30714 0.516667 4.95429 0.00222222 6.92571 0H53.0786C55.05 0 56.6971 0.514445 58.02 1.54333C59.3428 2.57222 60.0028 3.85333 60 5.38667V54.6167C60 56.15 59.34 57.4311 58.02 58.46C56.7 59.4889 55.0557 60.0022 53.0786 60Z" fill="black"/>
</svg>
