<svg width="80" height="80" viewBox="0 0 80 80" fill="none" xmlns="http://www.w3.org/2000/svg">
<path d="M25 38.3333V35H55V38.3333H25ZM25 25V21.6667H55V25H25ZM14.2857 48.3333H46.4286C48.1714 48.3333 49.7714 48.6278 51.2286 49.2167C52.6829 49.8033 53.9343 50.6289 54.9829 51.6933L65.7143 62.5267V15.3867C65.7143 14.7867 65.4671 14.2944 64.9728 13.91C64.4786 13.5256 63.8471 13.3333 63.0786 13.3333H16.9214C16.1529 13.3333 15.5214 13.5256 15.0271 13.91C14.5329 14.2944 14.2857 14.7867 14.2857 15.3867V48.3333ZM16.9257 66.6667H64.3643L51.6143 53.7233C50.9657 53.0656 50.2 52.5578 49.3171 52.2C48.4371 51.8444 47.4743 51.6667 46.4286 51.6667H14.2857V64.6167C14.2857 65.2144 14.5329 65.7055 15.0271 66.09C15.5214 66.4744 16.1543 66.6667 16.9257 66.6667ZM63.0786 70H16.9214C14.95 70 13.3043 69.4867 11.9843 68.46C10.6643 67.4333 10.0029 66.1522 10 64.6167V15.3833C10 13.85 10.6614 12.57 11.9843 11.5433C13.3071 10.5167 14.9543 10.0022 16.9257 10H63.0786C65.05 10 66.6971 10.5144 68.02 11.5433C69.3428 12.5722 70.0028 13.8533 70 15.3867V64.6167C70 66.15 69.34 67.4311 68.02 68.46C66.7 69.4889 65.0557 70.0022 63.0786 70Z" fill="#F5821F"/>
</svg>
