<svg width="64" height="65" viewBox="0 0 64 65" fill="none" xmlns="http://www.w3.org/2000/svg">
<path d="M32 0.333328C31.303 0.333374 30.6337 0.606328 30.1354 1.09374L1.04688 24.8854C1.01328 24.9107 0.980282 24.9367 0.947917 24.9635L0.848958 25.0469V25.0521C0.5815 25.3012 0.368124 25.6027 0.222081 25.9378C0.0760375 26.2729 0.000445532 26.6345 0 27C0 27.7072 0.280951 28.3855 0.781048 28.8856C1.28115 29.3857 1.95942 29.6667 2.66667 29.6667H5.33333V59C5.33333 61.9467 7.72 64.3333 10.6667 64.3333H53.3333C56.28 64.3333 58.6667 61.9467 58.6667 59V29.6667H61.3333C62.0406 29.6667 62.7189 29.3857 63.219 28.8856C63.7191 28.3855 64 27.7072 64 27C64.0003 26.6336 63.925 26.271 63.779 25.935C63.6329 25.599 63.4191 25.2966 63.151 25.0469L63.1094 25.0156C63.0509 24.9626 62.9901 24.9122 62.9271 24.8646L58.6667 21.3802V11C58.6667 9.528 57.472 8.33333 56 8.33333H53.3333C51.8613 8.33333 50.6667 9.528 50.6667 11V14.8385L33.8073 1.04687C33.316 0.590198 32.6707 0.335422 32 0.333328ZM40 35H50.6667V56.3333H40V35Z" fill="black"/>
</svg>
