<svg width="80" height="80" viewBox="0 0 80 80" fill="none" xmlns="http://www.w3.org/2000/svg">
<path d="M40 5.33333C39.303 5.33337 38.6337 5.60633 38.1354 6.09374L9.04688 29.8854C9.01328 29.9107 8.98028 29.9367 8.94792 29.9635L8.84896 30.0469V30.0521C8.5815 30.3012 8.36812 30.6027 8.22208 30.9378C8.07604 31.2729 8.00045 31.6345 8 32C8 32.7072 8.28095 33.3855 8.78105 33.8856C9.28115 34.3857 9.95942 34.6667 10.6667 34.6667H13.3333V64C13.3333 66.9467 15.72 69.3333 18.6667 69.3333H61.3333C64.28 69.3333 66.6667 66.9467 66.6667 64V34.6667H69.3333C70.0406 34.6667 70.7189 34.3857 71.219 33.8856C71.7191 33.3855 72 32.7072 72 32C72.0003 31.6336 71.925 31.271 71.779 30.935C71.6329 30.599 71.4191 30.2966 71.151 30.0469L71.1094 30.0156C71.0509 29.9626 70.9901 29.9122 70.9271 29.8646L66.6667 26.3802V16C66.6667 14.528 65.472 13.3333 64 13.3333H61.3333C59.8613 13.3333 58.6667 14.528 58.6667 16V19.8385L41.8073 6.04687C41.316 5.5902 40.6707 5.33542 40 5.33333ZM48 40H58.6667V61.3333H48V40Z" fill="#4E9B8F"/>
</svg>
