<svg width="80" height="80" viewBox="0 0 80 80" fill="none" xmlns="http://www.w3.org/2000/svg">
<path d="M72.2528 37.1536L62.7968 35.608C62.2432 33.7104 61.4864 31.8864 60.5392 30.16L66.0592 22.2928C66.5056 21.6576 66.4288 20.792 65.88 20.2416L59.6576 14.0224C59.1024 13.4688 58.2288 13.3968 57.592 13.856L49.8432 19.4256C48.1008 18.4624 46.2608 17.6976 44.352 17.1424L42.7024 7.72479C42.568 6.95999 41.904 6.39999 41.1264 6.39999H32.3264C31.5424 6.39999 30.8736 6.96799 30.7472 7.74239L29.2176 17.1088C27.2976 17.6608 25.4544 18.4176 23.7184 19.368L15.9904 13.848C15.352 13.392 14.4832 13.4656 13.928 14.0176L7.7088 20.2368C7.16 20.7856 7.0832 21.6496 7.5296 22.2848L12.968 30.0656C12 31.8176 11.2288 33.672 10.6672 35.6016L1.3376 37.1552C0.5664 37.2832 0 37.952 0 38.7328V47.5328C0 48.3088 0.5568 48.9728 1.32 49.1088L10.6496 50.7632C11.208 52.688 11.9792 54.5424 12.9504 56.2992L7.4448 64C6.9904 64.6352 7.0624 65.5072 7.6144 66.0624L13.8352 72.288C14.384 72.8368 15.2496 72.9136 15.8848 72.4672L23.6768 67.0096C25.4256 67.9712 27.2736 68.7344 29.1888 69.288L30.7504 78.6656C30.8768 79.4352 31.544 80 32.3264 80H41.1264C41.9024 80 42.5664 79.4432 42.7008 78.68L44.3728 69.256C46.2912 68.6912 48.1296 67.9232 49.8608 66.96L57.7088 72.4656C58.3456 72.9152 59.2096 72.8368 59.76 72.288L65.9808 66.0624C66.5344 65.5072 66.6064 64.632 66.1472 63.9952L60.5504 56.224C61.4992 54.496 62.2528 52.6688 62.8016 50.7712L72.2704 49.1088C73.0368 48.9744 73.5936 48.3088 73.5936 47.5328V38.7328C73.5952 37.9488 73.0272 37.28 72.2528 37.1536ZM36.7968 54.4C30.6112 54.4 25.5968 49.3856 25.5968 43.2C25.5968 37.0144 30.6112 32 36.7968 32C42.9824 32 47.9968 37.0144 47.9968 43.2C47.9968 49.3856 42.9824 54.4 36.7968 54.4Z" fill="#4E9B8F"/>
</svg>
